<svg width="180" height="181" viewBox="0 0 180 181" fill="none" xmlns="http://www.w3.org/2000/svg">
<circle cx="89.9365" cy="88.9209" r="88.1885" fill="white"/>
<path d="M26.9343 56.4383L33.391 60.5458L31.696 63.2101L25.2394 59.1026L10.5228 58.4391L12.3551 55.5588L23.6681 56.1137L18.4019 46.0539L20.1121 43.3656L26.9343 56.4383Z" fill="#070707"/>
<path d="M44.0202 43.9257L45.8709 45.934L36.3526 54.7056L22.5107 39.6855L31.8826 31.0488L33.7334 33.057L26.6626 39.5731L30.5954 43.8407L37.0385 37.903L38.8893 39.9112L32.4461 45.8489L36.803 50.5767L44.0202 43.9257Z" fill="#070707"/>
<path d="M57.7032 31.2294C59.4146 34.3464 58.2216 38.0845 53.8826 40.4668C49.5686 42.8353 45.6496 41.9039 43.4674 38.4612L46.2603 36.9278C47.6308 39.1286 49.8849 39.8057 52.6279 38.2997C54.8972 37.0538 56.0041 35.0506 54.991 33.2053C54.1695 31.7091 52.7863 31.4949 50.4701 32.1824L47.6029 33.1076C44.8105 33.9916 41.8181 33.9795 40.1478 30.9372C38.4912 27.9199 39.8885 24.1994 43.6041 22.1594C47.3196 20.1195 51.3833 20.8416 53.5656 24.2843L50.7727 25.8177C49.4456 23.7553 47.0781 23.108 44.8338 24.3402C42.5147 25.6134 41.996 27.6832 42.8448 29.2292C43.7758 30.9249 45.5757 30.7156 47.4381 30.1474L50.3689 29.2199C53.7783 28.1593 56.2383 28.5612 57.7032 31.2294Z" fill="#070707"/>
<path d="M78.5896 32.4643L75.5607 33.2503L71.1375 16.2057L64.6942 17.8778L63.9867 15.1518L79.9024 11.0216L80.6098 13.7476L74.1664 15.4197L78.5896 32.4643Z" fill="#070707"/>
<path d="M90.308 31.2237C84.3909 31.19 79.9512 26.5276 79.9856 20.4967C80.02 14.4659 84.5124 9.91139 90.4294 9.94515C96.3464 9.97891 100.787 14.5844 100.752 20.6152C100.718 26.6461 96.225 31.2575 90.308 31.2237ZM90.3241 28.4074C94.648 28.4321 97.4841 24.9776 97.5091 20.5967C97.5341 16.2158 94.7373 12.7861 90.4133 12.7614C86.0893 12.7368 83.2536 16.1344 83.2286 20.5153C83.2036 24.8961 86.0001 28.3828 90.3241 28.4074Z" fill="#070707"/>
<path d="M120.491 29.7696C119.483 33.3573 116.277 34.6728 112.196 33.5263L104.993 31.5028L110.517 11.8386L117.337 13.7544C121.308 14.87 123.175 17.3744 122.244 20.6883C121.721 22.5506 120.152 23.8236 118.031 24.1144C120.277 25.4838 121.122 27.5238 120.491 29.7696ZM116.468 16.1106L112.606 15.0258L110.945 20.9415L114.806 22.0263C117.189 22.6957 118.792 21.9344 119.307 20.0995C119.823 18.2645 118.851 16.78 116.468 16.1106ZM114.513 24.5441L110.267 23.3516L108.436 29.8698L112.681 31.0624C115.256 31.7856 117.054 30.961 117.638 28.8795C118.2 26.8802 117.087 25.2674 114.513 24.5441Z" fill="#070707"/>
<path d="M126.601 41.618C121.532 38.5654 120.098 32.289 123.209 27.1226C126.321 21.9561 132.51 20.3367 137.579 23.3892C142.647 26.4418 144.111 32.6695 140.999 37.8359C137.888 43.0024 131.67 44.6706 126.601 41.618ZM128.054 39.2054C131.758 41.4361 135.961 39.9159 138.221 36.1629C140.481 32.4099 139.83 28.0326 136.126 25.8019C132.421 23.5711 128.248 25.0426 125.988 28.7956C123.728 32.5486 124.35 36.9746 128.054 39.2054Z" fill="#070707"/>
<path d="M149.335 53.6189C146.815 56.1284 142.893 56.02 139.4 52.5129C135.927 49.026 135.734 45.0025 138.435 41.9503L140.684 44.2077C138.95 46.1354 138.925 48.4888 141.133 50.706C142.96 52.5401 145.192 53.0474 146.684 51.5619C147.893 50.3573 147.715 48.969 146.411 46.9347L144.726 44.437C143.102 41.9998 142.283 39.1216 144.742 36.6724C147.181 34.2433 151.143 34.5529 154.134 37.5561C157.125 40.5592 157.56 44.6637 154.858 47.7159L152.61 45.4585C154.223 43.6111 154.187 41.1569 152.381 39.3429C150.514 37.4684 148.381 37.5446 147.131 38.7893C145.761 40.1544 146.462 41.8254 147.525 43.4569L149.229 46.015C151.195 48.996 151.491 51.4708 149.335 53.6189Z" fill="#070707"/>
<path d="M158.239 68.6557C155.206 70.5128 151.416 69.4981 148.831 65.2769C146.261 61.0798 147.005 57.1211 150.341 54.7783L152.005 57.4955C149.871 58.9687 149.302 61.2523 150.936 63.921C152.288 66.1286 154.341 67.1395 156.137 66.0401C157.592 65.1487 157.741 63.7569 156.944 61.4759L155.884 58.6557C154.869 55.9083 154.739 52.9186 157.699 51.1061C160.635 49.3085 164.417 50.5281 166.631 54.1429C168.844 57.7577 168.316 61.851 164.98 64.1939L163.316 61.4767C165.313 60.0535 165.848 57.658 164.511 55.4745C163.129 53.2183 161.037 52.7982 159.533 53.7193C157.883 54.7295 158.178 56.5174 158.833 58.3509L159.899 61.2344C161.12 64.5899 160.835 67.0661 158.239 68.6557Z" fill="#070707"/>
<path d="M152.941 124.609L146.484 120.501L148.179 117.837L154.636 121.945L169.352 122.608L167.52 125.488L156.207 124.933L161.473 134.993L159.763 137.681L152.941 124.609Z" fill="#070707"/>
<path d="M134.853 135.121L133.002 133.113L142.52 124.342L156.362 139.362L146.99 147.998L145.14 145.99L152.21 139.474L148.278 135.206L141.835 141.144L139.984 139.136L146.427 133.198L142.07 128.47L134.853 135.121Z" fill="#070707"/>
<path d="M122.17 146.818C120.458 143.701 121.651 139.963 125.99 137.58C130.304 135.212 134.223 136.143 136.406 139.586L133.613 141.119C132.242 138.919 129.988 138.241 127.245 139.747C124.976 140.993 123.869 142.997 124.882 144.842C125.704 146.338 127.087 146.552 129.403 145.865L132.27 144.94C135.063 144.055 138.055 144.068 139.725 147.11C141.382 150.127 139.985 153.848 136.269 155.888C132.553 157.928 128.49 157.206 126.307 153.763L129.1 152.229C130.427 154.292 132.795 154.939 135.039 153.707C137.358 152.434 137.877 150.364 137.028 148.818C136.097 147.122 134.297 147.331 132.435 147.9L129.504 148.827C126.095 149.888 123.635 149.486 122.17 146.818Z" fill="#070707"/>
<path d="M105.285 148.583L108.314 147.797L112.737 164.842L119.181 163.17L119.888 165.896L103.973 170.026L103.265 167.3L109.709 165.628L105.285 148.583Z" fill="#070707"/>
<path d="M92.7682 149.824C98.6852 149.857 103.125 154.52 103.091 160.551C103.056 166.581 98.5638 171.136 92.6468 171.102C86.7297 171.068 82.2896 166.463 82.3241 160.432C82.3585 154.401 86.8512 149.79 92.7682 149.824ZM92.7521 152.64C88.4281 152.615 85.592 156.07 85.5671 160.451C85.5421 164.832 88.3389 168.261 92.6628 168.286C96.9868 168.311 99.8226 164.913 99.8476 160.532C99.8726 156.151 97.0761 152.665 92.7521 152.64Z" fill="#070707"/>
<path d="M59.5853 149.278C60.5932 145.69 63.7995 144.374 67.8802 145.521L75.0831 147.544L69.5588 167.209L62.7393 165.293C58.7681 164.177 56.9009 161.673 57.8319 158.359C58.3551 156.497 59.9242 155.223 62.0448 154.933C59.7996 153.563 58.9544 151.523 59.5853 149.278ZM63.6081 162.936L67.4697 164.021L69.1316 158.106L65.27 157.021C62.8873 156.351 61.2846 157.113 60.7691 158.948C60.2536 160.783 61.2254 162.267 63.6081 162.936ZM65.5637 154.503L69.8087 155.696L71.6399 149.177L67.3948 147.985C64.8204 147.261 63.0226 148.086 62.4379 150.168C61.8762 152.167 62.9892 153.78 65.5637 154.503Z" fill="#070707"/>
<path d="M52.272 138.429C57.341 141.482 58.7749 147.758 55.6636 152.925C52.5524 158.091 46.3635 159.71 41.2945 156.658C36.2256 153.605 34.7623 147.378 37.8736 142.211C40.9848 137.045 47.2031 135.377 52.272 138.429ZM50.8191 140.842C47.1149 138.611 42.9118 140.131 40.6517 143.884C38.3917 147.637 39.0432 152.015 42.7474 154.245C46.4517 156.476 50.6254 155.004 52.8855 151.252C55.1455 147.499 54.5234 143.072 50.8191 140.842Z" fill="#070707"/>
<path d="M30.5382 127.428C33.0577 124.919 36.98 125.027 40.4732 128.534C43.9462 132.021 44.1394 136.045 41.4378 139.097L39.1893 136.84C40.9231 134.912 40.9479 132.559 38.7396 130.341C36.9127 128.507 34.6809 128 33.1894 129.486C31.9801 130.69 32.1583 132.078 33.4618 134.113L35.1466 136.61C36.7711 139.048 37.5901 141.926 35.1311 144.375C32.6923 146.804 28.7301 146.494 25.7389 143.491C22.7476 140.488 22.3132 136.384 25.0148 133.331L27.2633 135.589C25.6503 137.436 25.6857 139.89 27.4925 141.704C29.3595 143.579 31.4919 143.503 32.7416 142.258C34.1121 140.893 33.4114 139.222 32.3485 137.59L30.6438 135.032C28.6784 132.051 28.3816 129.577 30.5382 127.428Z" fill="#070707"/>
<path d="M21.6343 112.391C24.6669 110.534 28.4572 111.549 31.0423 115.77C33.6125 119.967 32.8677 123.926 29.5322 126.269L27.8682 123.552C30.0016 122.078 30.5713 119.795 28.9371 117.126C27.5851 114.918 25.5317 113.908 23.7365 115.007C22.2808 115.898 22.1324 117.29 22.9289 119.571L23.9887 122.391C25.004 125.139 25.1336 128.128 22.1738 129.941C19.2383 131.739 15.4559 130.519 13.2422 126.904C11.0286 123.289 11.5575 119.196 14.893 116.853L16.5569 119.57C14.5597 120.994 14.0252 123.389 15.3623 125.573C16.7439 127.829 18.8359 128.249 20.3401 127.328C21.9898 126.318 21.6955 124.53 21.0397 122.696L19.9744 119.813C18.7535 116.457 19.0385 113.981 21.6343 112.391Z" fill="#070707"/>
<circle cx="90.217" cy="88.9211" r="8.71509" stroke="black"/>
<circle cx="90.2161" cy="88.9209" r="2.61937" stroke="black" stroke-width="0.81838"/>
<circle cx="89.9365" cy="88.9209" r="19.2725" stroke="#4E4E4E"/>
<circle cx="89.9366" cy="88.921" r="28.548" stroke="#888787"/>
<circle cx="90.2163" cy="88.9209" r="36.6128" stroke="#E1E1E1"/>
</svg>
