<svg width="94" height="39" viewBox="0 0 94 39" fill="none" xmlns="http://www.w3.org/2000/svg">
<path d="M45.1027 1.26045C45.2429 2.00826 45.1027 3.17673 44.7755 3.92454L44.1679 5.3267L43.0929 4.25171C42.532 3.69085 41.8777 3.31694 41.7375 3.5039C41.5505 3.64411 41.644 3.92454 41.9244 4.1115C42.6255 4.57888 43.0929 6.07452 42.532 6.07452C42.2983 6.07452 41.5505 5.51366 40.8495 4.85932C40.1951 4.20498 39.5408 3.78433 39.4006 3.92454C39.2603 4.1115 39.4473 4.48541 39.8212 4.81258C40.9897 5.74735 42.1114 7.80385 42.1114 8.97231V10.0473L42.9527 9.06579C44.5885 7.00929 47.5331 6.40169 49.4494 7.71037C50.3841 8.36471 50.4309 8.31797 50.7113 6.30821C50.8982 5.13975 51.3656 3.92454 51.7395 3.55064C52.5808 2.6626 52.5808 2.33543 51.6928 2.33543C51.3189 2.33543 50.9917 2.75608 50.9917 3.2702C50.9917 3.73759 50.5711 4.39193 50.057 4.67236C49.2624 5.09301 49.1222 5.04627 49.1222 4.29845C49.1222 3.83107 49.3559 3.22347 49.6363 2.94303C50.0102 2.56913 50.0102 2.33543 49.6363 2.14848C49.1689 1.82131 48.8418 2.38217 48.0939 4.67236C47.7668 5.60713 45.8505 2.47565 45.8505 1.02675C45.8505 0.46589 45.6168 -0.00149632 45.3364 -0.00149632C45.0559 -0.00149632 44.9624 0.512629 45.1027 1.26045ZM46.3179 5.42018C46.3179 5.79409 46.0842 5.98104 45.8505 5.84083C45.5701 5.65387 45.4766 5.3267 45.6168 5.09301C46.0374 4.43867 46.3179 4.57888 46.3179 5.42018Z" fill="#212121"/>
<path d="M63.3776 0.419128C62.0222 0.746298 62.0222 0.746298 63.0504 1.12021C63.7048 1.30716 64.0319 1.72781 63.8917 2.10172C63.6113 2.84953 64.9667 4.15821 66.2287 4.25169C67.958 4.43865 68.7058 4.20495 68.8928 3.36366C69.033 2.94301 69.1264 3.45714 69.1732 4.53212C69.2199 6.26145 69.3601 6.54188 70.2014 6.54188C70.9493 6.54188 71.0895 6.40167 70.7623 5.93428C69.921 4.95277 69.734 2.8028 70.4351 2.8028C71.6971 2.8028 71.0427 2.05498 68.9862 1.02673C66.7895 -0.0482578 65.808 -0.141735 63.3776 0.419128Z" fill="#212121"/>
<path d="M59.4514 3.41041C59.0308 3.97128 59.0775 4.15823 59.5916 4.34518C60.4797 4.67235 60.8536 4.15823 60.3862 3.36367C60.1058 2.89629 59.9188 2.89629 59.4514 3.41041Z" fill="#212121"/>
<path d="M62.1625 7.7571C59.5452 10.4679 55.3854 13.2255 52.5344 14.2538C51.2724 14.6744 49.6366 15.3755 48.7953 15.7494C47.8605 16.2168 46.8323 16.357 45.991 16.17C45.2899 15.9831 43.1867 15.8429 41.3639 15.8896C37.7183 15.9364 35.5215 15.282 32.9042 13.2723C32.0629 12.6179 31.3618 12.3375 31.3618 12.6179C31.3618 13.8331 33.1846 15.6559 36.69 17.9929C43.2334 22.2928 43.6073 24.583 38.9802 30.9394C38.0922 32.2014 37.4846 33.1829 37.6715 33.1829C38.3726 33.1829 45.8508 29.4905 48.0475 28.0416C50.104 26.6862 50.4779 26.2188 50.9453 24.1156C51.7398 20.6102 53.3289 18.2733 57.4419 14.5809C60.9006 11.4495 65.0136 6.35495 64.4995 5.84082C64.3592 5.74734 63.331 6.58864 62.1625 7.7571Z" fill="#212121"/>
<path d="M44.2614 9.4397C43.3733 10.7016 43.3266 11.8234 44.0277 13.2255C44.7755 14.5809 45.3363 14.9548 46.8787 14.9548C49.4026 14.9548 51.0852 10.8886 49.2156 9.206C47.907 8.03754 45.1494 8.17776 44.2614 9.4397Z" fill="#212121"/>
<path d="M65.8078 11.8701C65.6209 12.2907 65.0133 12.8516 64.4524 13.0853L63.3774 13.5059H64.4057C64.9666 13.5527 65.6676 13.9266 65.9481 14.3472C66.4154 15.1418 66.4154 15.1418 66.8828 14.3472C67.1633 13.9266 67.7709 13.5527 68.1915 13.5527C68.8459 13.5059 68.8459 13.4592 68.0513 12.9918C67.5372 12.7114 66.8828 12.1505 66.6024 11.7766C66.1818 11.169 66.0415 11.169 65.8078 11.8701Z" fill="#212121"/>
<path d="M59.872 20.3765C51.7395 28.6492 39.3538 35.5198 32.6234 35.5198C30.0528 35.5198 29.0246 35.0524 28.1833 33.4633C27.7626 32.622 27.6692 32.7155 27.2018 34.3513C26.5942 36.6415 27.342 38.3709 29.1181 38.8383C34.4463 40.2404 49.4493 32.3883 58.0025 23.7884C60.9003 20.8439 63.6579 17.2918 63.0503 17.2918C62.9568 17.2918 61.5079 18.6939 59.872 20.3765Z" fill="#212121"/>
<path d="M63.6113 23.1341V28.0416H66.4156C68.6124 28.0416 69.4069 27.8547 70.1547 27.1069C71.2765 25.9851 71.3699 24.6297 70.3417 23.6015C69.7341 23.0406 69.6873 22.7134 70.108 22.2928C70.9493 21.4515 70.7156 19.7222 69.5939 18.9744C68.9395 18.507 67.5374 18.2265 66.0885 18.2265H63.6113V23.1341ZM68.5189 21.0309C68.5189 21.4515 68.0048 21.7787 67.2569 21.8721C66.182 22.0124 65.9483 21.8254 65.9483 21.0309C65.9483 20.2363 66.182 20.0493 67.2569 20.1896C68.0048 20.283 68.5189 20.6102 68.5189 21.0309ZM68.6591 25.0971C68.7993 26.0319 68.6124 26.1721 67.3972 26.1721C66.1352 26.1721 65.9483 25.9851 65.9483 24.9569C65.9483 23.9286 66.1352 23.7884 67.2569 23.9286C68.145 24.0221 68.5656 24.3493 68.6591 25.0971Z" fill="#212121"/>
<path d="M73.0994 18.9276C71.5571 20.0026 70.856 22.62 71.5103 24.8167C72.1647 27.0601 73.5668 28.0416 75.9972 28.0416C78.895 27.9949 80.4374 26.3123 80.4374 23.1341C80.4374 21.2645 79.783 19.7222 78.6146 18.8341C77.5863 18.0396 74.3146 18.0863 73.0994 18.9276ZM77.1657 20.0961C78.2874 20.7037 78.8015 23.1808 78.1472 24.8634C77.5396 26.4525 76.044 26.9199 74.5951 25.9851C73.0994 25.0036 72.9592 21.9656 74.3614 20.5635C75.4364 19.4885 75.9037 19.4417 77.1657 20.0961Z" fill="#212121"/>
<path d="M81.6055 18.9744C81.1381 19.4417 80.9044 20.3298 80.9979 21.2178C81.0914 22.3863 81.512 22.8537 83.1479 23.7417C84.2229 24.3493 85.1109 25.1438 85.1109 25.471C85.1109 26.359 83.5685 26.733 82.1196 26.1721C81.0914 25.7982 80.811 25.8449 80.5773 26.4525C80.437 26.8732 80.5773 27.3873 80.9512 27.621C82.0729 28.3221 85.3913 28.0884 86.0924 27.2938C86.6065 26.6395 86.7 26.6395 87.0739 27.2938C87.6815 28.3688 91.2804 28.2753 92.2619 27.2003C93.5706 25.7514 93.2902 23.9286 91.6076 22.9939C88.8033 21.4515 88.5696 21.2178 89.2706 20.4232C89.6445 19.9091 90.2989 19.7689 91.1869 19.9091C91.9347 20.0961 92.6358 19.9559 92.8228 19.6287C93.7575 18.1331 89.0369 17.6657 87.775 19.0678C86.2326 20.7504 86.887 22.5732 89.3641 23.8819C92.075 25.2373 91.701 27.0134 88.8033 26.4058C87.775 26.1721 87.2141 25.7047 86.887 24.7232C86.6065 23.8352 85.7652 22.9939 84.5968 22.3863C81.9794 21.0776 82.4001 19.2548 85.1109 19.9559C86.2794 20.283 87.3076 19.1613 86.3728 18.6004C85.3913 17.9461 82.4001 18.1798 81.6055 18.9744Z" fill="#212121"/>
<path d="M26.2205 20.5635C26.2205 20.7972 25.6129 21.0309 24.865 21.0309C24.1172 21.0309 23.3227 21.3113 22.9955 21.6385C22.6216 22.1526 22.8086 22.2461 23.977 22.0591C25.5661 21.8254 25.5661 21.9189 24.3042 25.0504C23.977 25.8449 23.8835 26.8732 24.0705 27.3406C24.3509 28.1351 24.4444 28.1351 25.1455 27.434C25.8933 26.733 25.9868 26.733 26.8748 27.4808C27.7161 28.2286 27.7628 28.2286 27.4824 27.434C27.1085 26.3591 28.3704 23.1808 29.0248 23.6015C29.2585 23.7417 29.4922 23.6482 29.4922 23.4145C29.4922 22.1526 27.4824 23.4613 26.2672 25.5178C24.8183 27.9482 24.4444 27.0601 25.7531 24.3026C26.5476 22.6667 27.1552 21.9656 27.8096 21.9189C28.6041 21.8722 28.6509 21.8254 27.9965 21.6385C27.5291 21.545 27.1552 21.1243 27.1552 20.7504C27.1552 20.3765 26.9683 20.0961 26.6879 20.0961C26.4542 20.0961 26.2205 20.283 26.2205 20.5635Z" fill="#212121"/>
<path d="M28.7446 25.658C28.7446 26.1721 28.9316 26.4525 29.1185 26.3591C29.3055 26.2188 29.4924 25.7982 29.4924 25.4243C29.4924 25.0504 29.3055 24.7699 29.1185 24.7699C28.9316 24.7699 28.7446 25.1906 28.7446 25.658Z" fill="#212121"/>
<path d="M32.904 26.733C30.9877 28.9297 29.9595 30.7992 29.9595 32.1546C29.9595 33.7437 32.6117 34.1029 33.3714 34.1177C34.1311 34.1324 37.9036 33.1386 37.9036 33.1386C37.9036 33.1386 35.0356 33.5117 33.9323 33.3231C32.8289 33.1345 32.3431 32.3416 32.1562 32.0612C31.5953 31.2666 32.1562 28.6492 33.2312 27.1069C34.3996 25.471 34.2594 25.2841 32.904 26.733Z" fill="#212121"/>
<path d="M4.0548 24.2972L6.51847 19.6548H7.67748L4.59313 25.3232V28.9142H3.51646V25.3738L0.425781 19.6548H1.60379L4.0548 24.2972ZM14.1058 28.9142H8.95048V19.6548H14.1058V20.6048H10.0272V23.6005H13.8715V24.5378H10.0272V27.9642H14.1058V28.9142ZM21.3829 26.4505C21.3829 26.9994 21.2456 27.4681 20.9712 27.8565C20.701 28.2407 20.321 28.5342 19.8312 28.7368C19.3414 28.9395 18.7651 29.0408 18.1022 29.0408C17.7517 29.0408 17.4203 29.024 17.1079 28.9902C16.7954 28.9564 16.5083 28.9078 16.2465 28.8445C15.9847 28.7812 15.7546 28.7031 15.5562 28.6102V27.5778C15.8728 27.7087 16.2592 27.8312 16.7152 27.9452C17.1712 28.055 17.6483 28.1098 18.1465 28.1098C18.611 28.1098 19.0036 28.0486 19.3245 27.9262C19.6454 27.7995 19.8882 27.6201 20.0529 27.3878C20.2218 27.1514 20.3062 26.8685 20.3062 26.5392C20.3062 26.2225 20.2365 25.9586 20.0972 25.7475C19.9579 25.5322 19.7256 25.3379 19.4005 25.1648C19.0796 24.9875 18.6405 24.7996 18.0832 24.6012C17.6905 24.4618 17.3443 24.3098 17.0445 24.1452C16.7447 23.9763 16.4935 23.7863 16.2908 23.5752C16.0882 23.364 15.9341 23.1192 15.8285 22.8405C15.7272 22.5618 15.6765 22.243 15.6765 21.8842C15.6765 21.3902 15.8011 20.9679 16.0502 20.6175C16.3035 20.2628 16.6519 19.9926 17.0952 19.8068C17.5427 19.6168 18.0557 19.5218 18.6342 19.5218C19.1282 19.5218 19.5842 19.5683 20.0022 19.6611C20.4244 19.754 20.8108 19.8786 21.1612 20.0348L20.8255 20.9595C20.492 20.8201 20.1373 20.704 19.7615 20.6111C19.39 20.5183 19.0057 20.4718 18.6089 20.4718C18.212 20.4718 17.8763 20.5309 17.6019 20.6491C17.3316 20.7631 17.1247 20.9257 16.9812 21.1368C16.8376 21.3479 16.7659 21.5992 16.7659 21.8905C16.7659 22.2156 16.8334 22.4858 16.9685 22.7012C17.1079 22.9165 17.3274 23.1086 17.6272 23.2775C17.9312 23.4422 18.3323 23.6153 18.8305 23.7968C19.3752 23.9953 19.8375 24.2064 20.2175 24.4302C20.5975 24.6497 20.8868 24.9199 21.0852 25.2408C21.2836 25.5575 21.3829 25.9607 21.3829 26.4505Z" fill="#212121"/>
</svg>
