<svg width="143" height="61" viewBox="0 0 143 61" fill="none" xmlns="http://www.w3.org/2000/svg">
<path d="M68.9505 2.15143C69.1669 3.30548 68.9505 5.10867 68.4456 6.26271L67.508 8.42654L65.849 6.7676C64.9835 5.90207 63.9737 5.32505 63.7573 5.61356C63.4688 5.82994 63.6131 6.26271 64.0458 6.55122C65.1277 7.2725 65.849 9.58058 64.9835 9.58058C64.6229 9.58058 63.4688 8.71505 62.3869 7.70526C61.3771 6.69547 60.3673 6.04633 60.1509 6.26271C59.9346 6.55122 60.2231 7.12824 60.8001 7.63313C62.6033 9.07569 64.3343 12.2493 64.3343 14.0525V15.7114L65.6326 14.1967C68.1571 11.0231 72.7011 10.0855 75.6584 12.105C77.1009 13.1148 77.1731 13.0427 77.6058 9.94122C77.8943 8.13803 78.6156 6.26271 79.1926 5.68569C80.4909 4.31526 80.4909 3.81037 79.1205 3.81037C78.5435 3.81037 78.0386 4.45952 78.0386 5.25292C78.0386 5.9742 77.3894 6.98398 76.596 7.41675C75.3699 8.0659 75.1535 7.99377 75.1535 6.83973C75.1535 6.11845 75.5141 5.18079 75.9469 4.74803C76.5239 4.17101 76.5239 3.81037 75.9469 3.52186C75.2256 3.01697 74.7207 3.8825 73.5667 7.41675C73.0618 8.8593 70.1046 4.02675 70.1046 1.7908C70.1046 0.925265 69.7439 0.20399 69.3112 0.20399C68.8784 0.20399 68.7341 0.997394 68.9505 2.15143ZM70.8258 8.57079C70.8258 9.14781 70.4652 9.43632 70.1046 9.21994C69.6718 8.93143 69.5275 8.42654 69.7439 8.0659C70.3931 7.05611 70.8258 7.2725 70.8258 8.57079Z" fill="white"/>
<path d="M97.1521 0.853042C95.0604 1.35793 95.0604 1.35793 96.6472 1.93496C97.657 2.22347 98.1619 2.87261 97.9455 3.44964C97.5127 4.60368 99.6044 6.62325 101.552 6.76751C104.221 7.05602 105.375 6.69538 105.663 5.39708C105.88 4.74793 106.024 5.54134 106.096 7.20027C106.168 9.86899 106.384 10.3018 107.683 10.3018C108.837 10.3018 109.053 10.0854 108.548 9.3641C107.25 7.84942 106.961 4.53155 108.043 4.53155C109.991 4.53155 108.981 3.37751 105.807 1.7907C102.417 0.131765 100.903 -0.0124893 97.1521 0.853042Z" fill="white"/>
<path d="M91.0934 5.46903C90.4443 6.33456 90.5164 6.62307 91.3098 6.91158C92.6803 7.41647 93.2573 6.62307 92.536 5.3969C92.1032 4.67563 91.8147 4.67563 91.0934 5.46903Z" fill="white"/>
<path d="M95.2772 12.1766C91.2381 16.36 84.8187 20.6156 80.4189 22.2024C78.4715 22.8515 75.947 23.9334 74.6487 24.5105C73.2062 25.2317 71.6194 25.4481 70.3211 25.1596C69.2391 24.8711 65.9934 24.6547 63.1804 24.7268C57.5545 24.799 54.1645 23.7892 50.1253 20.6877C48.827 19.6779 47.7451 19.2451 47.7451 19.6779C47.7451 21.5532 50.5581 24.3662 55.9677 27.9726C66.0655 34.6083 66.6425 38.1426 59.5019 47.9519C58.1315 49.8994 57.1938 51.4141 57.4823 51.4141C58.5643 51.4141 70.1047 45.716 73.4947 43.48C76.6683 41.3883 77.2453 40.667 77.9666 37.4213C79.1928 32.0117 81.6451 28.4054 87.9923 22.7073C93.3298 17.8747 99.677 10.0128 98.8836 9.21941C98.6672 9.07515 97.0804 10.3735 95.2772 12.1766Z" fill="white"/>
<path d="M67.652 14.7731C66.2816 16.7206 66.2095 18.4516 67.2914 20.6155C68.4454 22.7072 69.311 23.2842 71.6912 23.2842C75.5861 23.2842 78.1827 17.0091 75.2976 14.4125C73.278 12.6093 69.0225 12.8257 67.652 14.7731Z" fill="white"/>
<path d="M100.903 18.5237C100.614 19.1729 99.6768 20.0384 98.8113 20.399L97.1523 21.0482H98.7392C99.6047 21.1203 100.687 21.6973 101.119 22.3465C101.841 23.5727 101.841 23.5727 102.562 22.3465C102.995 21.6973 103.932 21.1203 104.581 21.1203C105.591 21.0482 105.591 20.9761 104.365 20.2548C103.572 19.822 102.562 18.9565 102.129 18.3795C101.48 17.4418 101.264 17.4418 100.903 18.5237Z" fill="white"/>
<path d="M91.7423 31.6512C79.1921 44.4178 60.0783 55.0206 49.6919 55.0206C45.7249 55.0206 44.1381 54.2993 42.8398 51.847C42.1906 50.5487 42.0464 50.6929 41.3251 53.2174C40.3874 56.7516 41.5415 59.4204 44.2823 60.1416C52.5049 62.3055 75.6578 50.188 88.8572 36.9165C93.3291 32.3725 97.5846 26.8908 96.647 26.8908C96.5027 26.8908 94.2667 29.0546 91.7423 31.6512Z" fill="white"/>
<path d="M97.5137 35.9066V43.48H101.841C105.231 43.48 106.457 43.1915 107.612 42.0374C109.343 40.3064 109.487 38.2147 107.9 36.6279C106.962 35.7623 106.89 35.2574 107.539 34.6083C108.838 33.31 108.477 30.6413 106.746 29.4872C105.736 28.7659 103.572 28.3332 101.336 28.3332H97.5137V35.9066ZM105.087 32.6608C105.087 33.31 104.294 33.8149 103.14 33.9591C101.481 34.1755 101.12 33.887 101.12 32.6608C101.12 31.4347 101.481 31.1462 103.14 31.3625C104.294 31.5068 105.087 32.0117 105.087 32.6608ZM105.303 38.9359C105.52 40.3785 105.231 40.5949 103.356 40.5949C101.409 40.5949 101.12 40.3064 101.12 38.7196C101.12 37.1328 101.409 36.9164 103.14 37.1328C104.51 37.277 105.159 37.7819 105.303 38.9359Z" fill="white"/>
<path d="M112.155 29.4151C109.775 31.074 108.693 35.1132 109.703 38.5032C110.713 41.9653 112.876 43.48 116.627 43.48C121.099 43.4079 123.479 40.8113 123.479 35.9066C123.479 33.0215 122.469 30.6413 120.666 29.2708C119.079 28.0447 114.03 28.1168 112.155 29.4151ZM118.43 31.2183C120.161 32.1559 120.955 35.9787 119.945 38.5753C119.007 41.0276 116.699 41.7489 114.463 40.3064C112.155 38.7917 111.939 34.1034 114.103 31.9396C115.762 30.2806 116.483 30.2085 118.43 31.2183Z" fill="white"/>
<path d="M125.282 29.4874C124.561 30.2086 124.2 31.5791 124.345 32.9495C124.489 34.7527 125.138 35.4739 127.663 36.8444C129.322 37.782 130.692 39.0082 130.692 39.5131C130.692 40.8835 128.312 41.4605 126.076 40.595C124.489 40.018 124.056 40.0901 123.696 41.0278C123.479 41.6769 123.696 42.4703 124.273 42.831C126.004 43.9129 131.125 43.5522 132.207 42.3261C133 41.3163 133.144 41.3163 133.721 42.3261C134.659 43.985 140.213 43.8407 141.727 42.1818C143.747 39.9459 143.314 37.1329 140.718 35.6903C136.39 33.3101 136.029 32.9495 137.111 31.7233C137.688 30.9299 138.698 30.7135 140.069 30.9299C141.223 31.2184 142.305 31.002 142.593 30.4971C144.036 28.1891 136.751 27.4678 134.803 29.6316C132.423 32.2282 133.433 35.0412 137.256 37.0608C141.439 39.1525 140.862 41.8933 136.39 40.9556C134.803 40.595 133.938 39.8737 133.433 38.359C133 36.9886 131.702 35.6903 129.899 34.7527C125.859 32.7331 126.509 29.9201 130.692 31.002C132.495 31.5069 134.082 29.7759 132.639 28.9103C131.125 27.9005 126.509 28.2612 125.282 29.4874Z" fill="white"/>
<path d="M39.8113 31.9401C39.8113 32.3007 38.8737 32.6613 37.7196 32.6613C36.5656 32.6613 35.3394 33.0941 34.8345 33.599C34.2575 34.3924 34.546 34.5367 36.3492 34.2482C38.8015 33.8875 38.8015 34.0318 36.8541 38.8643C36.3492 40.0905 36.2049 41.6773 36.4934 42.3986C36.9262 43.6247 37.0705 43.6247 38.1524 42.5428C39.3064 41.4609 39.4507 41.4609 40.8211 42.615C42.1194 43.769 42.1915 43.769 41.7588 42.5428C41.1817 40.8839 43.1292 35.9792 44.139 36.6284C44.4996 36.8448 44.8602 36.7005 44.8602 36.3399C44.8602 34.3924 41.7588 36.412 39.8834 39.5856C37.6475 43.3362 37.0705 41.9658 39.09 37.7103C40.3162 35.1858 41.2539 34.1039 42.2636 34.0318C43.4898 33.9596 43.5619 33.8875 42.5522 33.599C41.8309 33.4548 41.2539 32.8056 41.2539 32.2286C41.2539 31.6516 40.9654 31.2188 40.5326 31.2188C40.1719 31.2188 39.8113 31.5073 39.8113 31.9401Z" fill="white"/>
<path d="M43.7061 39.8017C43.7061 40.5951 43.9946 41.0279 44.2831 40.8836C44.5716 40.6673 44.8601 40.0181 44.8601 39.4411C44.8601 38.8641 44.5716 38.4313 44.2831 38.4313C43.9946 38.4313 43.7061 39.0805 43.7061 39.8017Z" fill="white"/>
<path d="M50.1251 41.4607C47.1679 44.8507 45.5811 47.7358 45.5811 49.8275C45.5811 52.2798 49.674 52.834 50.8464 52.8568C52.0188 52.8796 57.8405 51.3459 57.8405 51.3459C57.8405 51.3459 53.4145 51.9218 51.7119 51.6307C50.0093 51.3395 49.2596 50.116 48.9711 49.6832C48.1055 48.457 48.9711 44.4179 50.63 42.0377C52.4332 39.5132 52.2168 39.2247 50.1251 41.4607Z" fill="white"/>
<path d="M5.60523 37.0961L9.40721 29.932H11.1958L6.436 38.6795V44.2212H4.77446V38.7577L0.00488281 29.932H1.8228L5.60523 37.0961ZM21.1161 44.2212H13.1603V29.932H21.1161V31.3981H14.8219V36.021H20.7545V37.4675H14.8219V42.7551H21.1161V44.2212ZM32.3462 40.4192C32.3462 41.2663 32.1344 41.9895 31.7109 42.589C31.2938 43.1819 30.7074 43.6348 29.9516 43.9475C29.1958 44.2603 28.3063 44.4167 27.2834 44.4167C26.7425 44.4167 26.2311 44.3906 25.7489 44.3385C25.2667 44.2863 24.8236 44.2114 24.4197 44.1137C24.0157 44.0159 23.6606 43.8954 23.3543 43.7521V42.1589C23.843 42.3609 24.4392 42.5499 25.1429 42.7258C25.8466 42.8952 26.5829 42.9799 27.3518 42.9799C28.0685 42.9799 28.6745 42.8854 29.1697 42.6965C29.6649 42.501 30.0396 42.2241 30.2937 41.8657C30.5543 41.5008 30.6846 41.0643 30.6846 40.556C30.6846 40.0674 30.5771 39.6601 30.3621 39.3343C30.1471 39.002 29.7887 38.7023 29.287 38.4351C28.7918 38.1615 28.1141 37.8715 27.254 37.5653C26.6481 37.3503 26.1138 37.1157 25.6511 36.8616C25.1885 36.6009 24.8008 36.3077 24.4881 35.9819C24.1753 35.6561 23.9375 35.2782 23.7746 34.8482C23.6182 34.4181 23.54 33.9262 23.54 33.3724C23.54 32.61 23.7322 31.9584 24.1167 31.4176C24.5076 30.8703 25.0452 30.4533 25.7293 30.1666C26.42 29.8734 27.2117 29.7268 28.1044 29.7268C28.8667 29.7268 29.5704 29.7984 30.2155 29.9418C30.8671 30.0851 31.4633 30.2773 32.0041 30.5184L31.4861 31.9454C30.9713 31.7304 30.424 31.5512 29.8441 31.4078C29.2707 31.2645 28.6777 31.1928 28.0653 31.1928C27.4528 31.1928 26.9348 31.284 26.5112 31.4665C26.0942 31.6424 25.7749 31.8933 25.5534 32.2191C25.3319 32.5448 25.2211 32.9325 25.2211 33.3821C25.2211 33.8838 25.3254 34.3009 25.5339 34.6332C25.7489 34.9655 26.0877 35.2619 26.5503 35.5226C27.0195 35.7767 27.6385 36.0438 28.4073 36.324C29.2479 36.6303 29.9614 36.9561 30.5478 37.3014C31.1342 37.6402 31.5805 38.0572 31.8868 38.5524C32.193 39.0411 32.3462 39.6634 32.3462 40.4192Z" fill="white"/>
</svg>
